<svg height="512" viewBox="0 0 512 512" width="512" xmlns="http://www.w3.org/2000/svg"><g><g><path d="m152 136a64.007 64.007 0 0 1 -109.26 45.26l45.26-45.26z" fill="#ffda44"/><path d="m88 72v64l-45.26 45.26a64.007 64.007 0 0 1 45.26-109.26z" fill="#83d8f4"/><path d="m152 136h-64v-64a64 64 0 0 1 64 64z" fill="#ab2300"/><g><circle cx="376" cy="360" fill="#ff9811" r="88"/><circle cx="376" cy="360" fill="#ffda44" r="64"/></g><path d="m320 32h32v160h-32z" fill="#91cc04"/><path d="m376 112h32v80h-32z" fill="#83d8f4"/><path d="m432 80h32v112h-32z" fill="#ff9811"/><path d="m208 112h32v80h-32z" fill="#83d8f4"/><path d="m264 80h32v112h-32z" fill="#ff9811"/><path d="m16 296h240v200h-240z" fill="#ffeb99"/><path d="m40 328h192v40h-192z" fill="#ff9811"/><g fill="#ab2300"><path d="m16 16h40v24h-40z"/><path d="m456 472h40v24h-40z" transform="matrix(-1 0 0 -1 952 968)"/></g></g><g><path d="m88 64a71.946 71.946 0 0 0 -51.53 122.21 7.729 7.729 0 0 0 1.32 1.32 71.978 71.978 0 1 0 50.21-123.53zm8 16.58a56.11 56.11 0 0 1 47.42 47.42h-47.42zm-64 55.42a56.086 56.086 0 0 1 48-55.42v52.11l-36.83 36.83a55.708 55.708 0 0 1 -11.17-33.52zm56 56a55.708 55.708 0 0 1 -33.52-11.17l36.83-36.83h52.11a56.086 56.086 0 0 1 -55.42 48z"/><path d="m376 264a95.954 95.954 0 0 0 -80.13 148.81l-31.87 31.88v-148.69a8 8 0 0 0 -8-8h-20.69l40-40h76.69a8 8 0 0 0 0-16h-80a8.008 8.008 0 0 0 -5.66 2.34l-53.65 53.66h-196.69a8 8 0 0 0 -8 8v200a8 8 0 0 0 8 8h240a8 8 0 0 0 8-8v-28.69l41.85-41.85a95.978 95.978 0 1 0 70.15-161.46zm-128 199.99v24.01h-224v-184h224zm128-23.99a80 80 0 1 1 80-80 80.093 80.093 0 0 1 -80 80z"/><path d="m376 288a72 72 0 1 0 72 72 72.083 72.083 0 0 0 -72-72zm0 128a56 56 0 1 1 56-56 56.062 56.062 0 0 1 -56 56z"/><path d="m400 360v24a8 8 0 0 1 -8 8h-8a8 8 0 0 1 -16 0h-8a8 8 0 0 1 0-16h24v-8h-24a8 8 0 0 1 -8-8v-24a8 8 0 0 1 8-8h8a8 8 0 0 1 16 0h8a8 8 0 0 1 0 16h-24v8h24a8 8 0 0 1 8 8z"/><path d="m320 200h32a8 8 0 0 0 8-8v-160a8 8 0 0 0 -8-8h-32a8 8 0 0 0 -8 8v160a8 8 0 0 0 8 8zm8-160h16v144h-16z"/><path d="m376 200h32a8 8 0 0 0 8-8v-80a8 8 0 0 0 -8-8h-32a8 8 0 0 0 -8 8v80a8 8 0 0 0 8 8zm8-80h16v64h-16z"/><path d="m432 200h32a8 8 0 0 0 8-8v-112a8 8 0 0 0 -8-8h-32a8 8 0 0 0 -8 8v112a8 8 0 0 0 8 8zm8-112h16v96h-16z"/><path d="m208 200h32a8 8 0 0 0 8-8v-80a8 8 0 0 0 -8-8h-32a8 8 0 0 0 -8 8v80a8 8 0 0 0 8 8zm8-80h16v64h-16z"/><path d="m264 200h32a8 8 0 0 0 8-8v-112a8 8 0 0 0 -8-8h-32a8 8 0 0 0 -8 8v112a8 8 0 0 0 8 8zm8-112h16v96h-16z"/><path d="m184 224h312a8 8 0 0 0 0-16h-304v-192a8 8 0 0 0 -16 0v200a8 8 0 0 0 8 8z"/><path d="m232 320h-192a8 8 0 0 0 -8 8v40a8 8 0 0 0 8 8h192a8 8 0 0 0 8-8v-40a8 8 0 0 0 -8-8zm-8 40h-176v-24h176z"/><path d="m232 384h-192a8 8 0 0 0 0 16h192a8 8 0 0 0 0-16z"/><path d="m232 408h-192a8 8 0 0 0 0 16h192a8 8 0 0 0 0-16z"/><path d="m232 432h-192a8 8 0 0 0 0 16h192a8 8 0 0 0 0-16z"/><path d="m120 456h-80a8 8 0 0 0 0 16h80a8 8 0 0 0 0-16z"/><path d="m152 456h-8a8 8 0 0 0 0 16h8a8 8 0 0 0 0-16z"/><path d="m376 232a8 8 0 0 0 0 16h8a8 8 0 0 0 0-16z"/><path d="m120 216h-80a8 8 0 0 0 0 16h76.687l37.656 37.657a8 8 0 1 0 11.314-11.314l-40-40a8 8 0 0 0 -5.657-2.343z"/><path d="m16 48h40a8 8 0 0 0 8-8v-24a8 8 0 0 0 -8-8h-40a8 8 0 0 0 -8 8v24a8 8 0 0 0 8 8zm8-24h24v8h-24z"/><path d="m80 24h72a8 8 0 0 0 0-16h-72a8 8 0 0 0 0 16z"/><path d="m80 48h24a8 8 0 0 0 0-16h-24a8 8 0 0 0 0 16z"/><path d="m496 464h-40a8 8 0 0 0 -8 8v24a8 8 0 0 0 8 8h40a8 8 0 0 0 8-8v-24a8 8 0 0 0 -8-8zm-8 24h-24v-8h24z"/><path d="m432 488h-72a8 8 0 0 0 0 16h72a8 8 0 0 0 0-16z"/><path d="m432 464h-24a8 8 0 0 0 0 16h24a8 8 0 0 0 0-16z"/></g></g></svg>