<svg height="512pt" viewBox="0 -1 512 512" width="512pt" xmlns="http://www.w3.org/2000/svg"><path d="m512 232.199219v270.875c0 2.074219-.871094 3.953125-2.273438 5.261719-1.296874 1.246093-3.050781 2.003906-4.992187 2.003906h-497.46875c-1.878906 0-3.582031-.707032-4.867187-1.890625-1.476563-1.308594-2.398438-3.238281-2.398438-5.375v-270.875l38.550781-18.339844 212.664063-101.199219c3.03125-1.445312 6.539062-1.445312 9.570312 0zm0 0" fill="#1ab975"/><path d="m512 232.199219v236.695312h-466.183594c-1.878906 0-3.582031-.707031-4.871094-1.890625-1.472656-1.308594-2.394531-3.238281-2.394531-5.375v-247.769531l212.664063-101.199219c3.03125-1.445312 6.539062-1.445312 9.570312 0zm0 0" fill="#1ed688"/><path d="m512 232.203125-251.210938 119.539063c-3.03125 1.441406-6.546874 1.441406-9.578124 0l-251.210938-119.539063 251.210938-119.542969c3.03125-1.441406 6.546874-1.441406 9.578124 0zm0 0" fill="#1ab975"/><path d="m509.726562 508.335938c-1.296874 1.246093-3.050781 2.003906-4.992187 2.003906h-497.46875c-1.878906 0-3.582031-.707032-4.867187-1.890625l4.980468-5.945313 173.378906-184.289062 70.457032 33.527344c3.03125 1.441406 6.539062 1.441406 9.570312 0l70.457032-33.527344 173.378906 184.289062s1.992187 2.261719 5.105468 5.832032zm0 0" fill="#35e298"/><path d="m509.726562 508.335938c-1.296874 1.246093-3.050781 2.003906-4.992187 2.003906h-497.46875c-1.878906 0-3.582031-.707032-4.867187-1.890625l4.980468-5.945313 33.476563-35.582031c.03125.019531.058593.050781.089843.082031 1.289063 1.183594 2.992188 1.890625 4.871094 1.890625h427.1875l31.617188 33.609375s1.992187 2.261719 5.105468 5.832032zm0 0" fill="#1ed688"/><path d="m38.550781 213.859375v36.679687l-38.550781-18.339843zm0 0" fill="#169b62"/><path d="m437.507812 10.523438v257.121093l-176.722656 84.097657c-3.03125 1.441406-6.539062 1.441406-9.570312 0l-176.722656-84.097657v-257.121093c0-5.8125 4.703124-10.523438 10.515624-10.523438h341.984376c5.8125 0 10.515624 4.710938 10.515624 10.523438zm0 0" fill="#ebebf0"/><path d="m437.507812 226.769531v40.875l-176.722656 84.097657c-3.03125 1.441406-6.539062 1.441406-9.570312 0l-176.722656-84.097657v-40.875l176.722656 84.097657c3.03125 1.441406 6.539062 1.441406 9.570312 0zm0 0" fill="#d2d2d7"/><g fill="#1ed688"><path d="m192.132812 74.246094h207.589844c4.300782 0 7.785156-3.484375 7.785156-7.785156 0-4.300782-3.484374-7.785157-7.785156-7.785157h-207.589844c-4.300781 0-7.785156 3.484375-7.785156 7.785157 0 4.300781 3.484375 7.785156 7.785156 7.785156zm0 0"/><path d="m399.722656 100.164062h-215.480468c-4.300782 0-7.785157 3.484376-7.785157 7.78125 0 4.300782 3.484375 7.785157 7.785157 7.785157h215.480468c4.300782 0 7.785156-3.484375 7.785156-7.785157 0-4.296874-3.484374-7.78125-7.785156-7.78125zm0 0"/><path d="m399.722656 141.648438h-287.445312c-4.300782 0-7.785156 3.484374-7.785156 7.785156 0 4.300781 3.484374 7.785156 7.785156 7.785156h287.445312c4.300782 0 7.785156-3.484375 7.785156-7.785156 0-4.300782-3.484374-7.785156-7.785156-7.785156zm0 0"/><path d="m327.589844 183.132812h-215.3125c-4.296875 0-7.785156 3.484376-7.785156 7.785157s3.488281 7.785156 7.785156 7.785156h215.3125c4.300781 0 7.785156-3.484375 7.785156-7.785156s-3.484375-7.785157-7.785156-7.785157zm0 0"/><path d="m327.589844 224.617188h-215.3125c-4.296875 0-7.785156 3.484374-7.785156 7.785156 0 4.300781 3.488281 7.785156 7.785156 7.785156h215.3125c4.300781 0 7.785156-3.484375 7.785156-7.785156 0-4.300782-3.484375-7.785156-7.785156-7.785156zm0 0"/><path d="m373.980469 203.503906c-6.199219-2.292968-12.308594-3.492187-12.308594-8.710937 0-8.9375 11.722656-5.300781 20.0625-2.621094 5.582031-.34375 12.800781-12.035156-6.929687-15.441406v-5.617188c0-3.707031-3.003907-6.710937-6.710938-6.710937-3.703125 0-6.707031 3.003906-6.707031 6.710937v6.53125c-.09375.066407-12.894531 2.582031-12.894531 17.644531 0 13.019532 9.285156 16.511719 16.746093 19.3125 7.46875 2.808594 10.773438 4.304688 10.773438 10.363282 0 7.71875-5.65625 6.96875-9.078125 7.566406-8.804688-.277344-8.332032-6.820312-13.78125-6.820312-3.410156 0-6.152344 3.765624-6.152344 6.878906 0 8.816406 14.246094 12.144531 14.335938 12.191406h.050781v5.648438c0 3.707031 3.003906 6.707031 6.707031 6.707031 3.707031 0 6.710938-3 6.710938-6.707031v-5.789063h.027343c.5-.367187 14.359375-2.929687 14.359375-20.175781 0-16.910156-13.894531-19.96875-15.210937-20.960938zm0 0"/><path d="m142.742188 106.425781c-8.800782-.277343-8.328126-6.820312-13.777344-6.820312-3.410156 0-6.15625 3.765625-6.15625 6.878906 0 8.816406 14.25 12.144531 14.335937 12.191406h.054688v5.648438c0 3.703125 3.003906 6.707031 6.707031 6.707031 3.707031 0 6.710938-3.003906 6.710938-6.707031v-5.789063h.027343c.5-.367187 14.359375-2.929687 14.359375-20.175781 0-16.910156-13.894531-19.96875-15.210937-20.960937-6.199219-2.292969-12.308594-3.492188-12.308594-8.714844 0-8.933594 11.722656-5.300782 20.0625-2.617188 5.582031-.34375 12.800781-12.03125-6.929687-15.441406v-5.617188c0-3.707031-3.003907-6.710937-6.710938-6.710937-3.703125 0-6.707031 3.003906-6.707031 6.710937v6.53125c-.09375.066407-12.894531 2.582032-12.894531 17.644532 0 13.023437 9.285156 16.511718 16.746093 19.316406 7.46875 2.804688 10.769531 4.300781 10.769531 10.359375 0 7.71875-5.652343 6.96875-9.078124 7.566406zm0 0"/></g></svg>